<?xml version="1.0" encoding="UTF-8" standalone="no"?>
<svg width="1200" height="628" viewBox="0 0 1200 628" version="1.1" xmlns="http://www.w3.org/2000/svg" xmlns:xlink="http://www.w3.org/1999/xlink"
>
  
  
  
  
  

  <!-- SVG background, generate your own on: https://app.haikei.app/  -->
  <svg id="visual" viewBox="0 0 1200 628" width="1200" height="628" xmlns="http://www.w3.org/2000/svg" xmlns:xlink="http://www.w3.org/1999/xlink" version="1.1"><rect x="0" y="0" width="1200" height="628" fill="#F3F3F3"></rect><path d="M0 100L50 92.7C100 85.3 200 70.7 300 70.7C400 70.7 500 85.3 600 94.3C700 103.3 800 106.7 900 107.5C1000 108.3 1100 106.7 1150 105.8L1200 105L1200 0L1150 0C1100 0 1000 0 900 0C800 0 700 0 600 0C500 0 400 0 300 0C200 0 100 0 50 0L0 0Z" fill="#DD4462" stroke-linecap="round" stroke-linejoin="miter"></path></svg>

  <!-- date -->
  <text
    font-family="Redhat, Roboto, 'Helvetica Neue', sans-serif"
    font-size="24"
    font-weight="bold"
    fill="#DD4462"
    letter-spacing="-1"
  >
    <tspan x="160" y="170">
      12 / 10 / 2022
    </tspan>
  </text>

  <!-- title -->
  <text
    id="text"
    font-family="Redhat, Roboto, 'Helvetica Neue', sans-serif"
    font-size="80"
    font-weight="900"
    fill="#333333"
    letter-spacing="-3"
  >
    
    <tspan x="160" y="270">
      Post with an
    </tspan>
    
    <tspan x="160" y="350">
      image 
    </tspan>
    
  </text>

  <!-- sitename -->
  <text
  font-family="Redhat, Roboto, 'Helvetica Neue', sans-serif"
    font-size="24"
    font-weight="bold"
    fill="#DD4462"
    letter-spacing="-0.5"
  >
    <tspan x="160" y="600">Carlos Guedes · localhost:8080</tspan>
  </text>
</svg>
